# xmcd CD database file
#
# Track frame offsets:
#	150
#	19328
#	45109
#	63774
#	76607
#	92399
#	117360
#	137643
#	164348
#	191575
#
# Disc length: 2900 seconds
#
# Revision: 3
# Processed by: cddbd v1.5.2PL0 Copyright (c) Steve Scherf et al.
# Submitted via: CDex 1.51
#
DISCID=6d0b520a
DTITLE=Mayumi Akasaki - Heart Strings
DYEAR=2008
DGENRE=Jazz
TTITLE0=Triste
TTITLE1=I'm a Fool to Want You
TTITLE2=Like Someone in Love
TTITLE3=Just One of Those Things
TTITLE4=Tea For Two
TTITLE5=You Taught My Heart to Sing
TTITLE6=Fly Me to The Moon
TTITLE7=Stardust
TTITLE8=April in Paris
TTITLE9=Imagine
EXTD=YEAR: 2008
EXTT0=
EXTT1=
EXTT2=
EXTT3=
EXTT4=
EXTT5=
EXTT6=
EXTT7=
EXTT8=
EXTT9=
PLAYORDER=
